<svg width="28" height="28" viewBox="0 0 28 28" fill="none" xmlns="http://www.w3.org/2000/svg">
<path d="M5.39101 26H22.6227C23.3648 26 23.9465 25.8319 24.3679 25.4956C24.7893 25.1594 25 24.6877 25 24.0806C25 23.2306 24.7435 22.3386 24.2305 21.4046C23.7266 20.4612 22.9938 19.5832 22.0319 18.7706C21.07 17.9486 19.9111 17.2808 18.5553 16.7671C17.2086 16.2534 15.6925 15.9965 14.0069 15.9965C12.3213 15.9965 10.8005 16.2534 9.44472 16.7671C8.0889 17.2808 6.93004 17.9486 5.96814 18.7706C5.01541 19.5832 4.28253 20.4612 3.76952 21.4046C3.25651 22.3386 3 23.2306 3 24.0806C3 24.6877 3.2107 25.1594 3.6321 25.4956C4.05351 25.8319 4.63981 26 5.39101 26ZM14.0069 13.6567C14.9596 13.6567 15.8345 13.3952 16.6315 12.8722C17.4285 12.3491 18.0652 11.6439 18.5415 10.7566C19.0271 9.8599 19.2698 8.85581 19.2698 7.74431C19.2698 6.66083 19.0271 5.68476 18.5415 4.81611C18.0652 3.94746 17.4285 3.26095 16.6315 2.75657C15.8345 2.25219 14.9596 2 14.0069 2C13.0633 2 12.1884 2.25686 11.3823 2.77058C10.5853 3.2843 9.94399 3.98015 9.45846 4.85814C8.98209 5.7268 8.74849 6.69819 8.75765 7.77233C8.75765 8.86515 8.99584 9.8599 9.4722 10.7566C9.94857 11.6439 10.5853 12.3491 11.3823 12.8722C12.1793 13.3952 13.0541 13.6567 14.0069 13.6567Z" fill="#202020"/>
</svg>
