<svg xmlns="http://www.w3.org/2000/svg" width="60" height="60" viewBox="0 0 60 60" fill="none">
<!--    <rect y="4" width="56" height="56" rx="14" fill="#F5F5F5"/>-->
<!--    <path d="M19.391 44H36.6227C37.3648 44 37.9465 43.8319 38.3679 43.4956C38.7893 43.1594 39 42.6877 39 42.0806C39 41.2306 38.7435 40.3386 38.2305 39.4046C37.7266 38.4612 36.9938 37.5832 36.0319 36.7706C35.07 35.9486 33.9111 35.2808 32.5553 34.7671C31.2086 34.2534 29.6925 33.9965 28.0069 33.9965C26.3213 33.9965 24.8005 34.2534 23.4447 34.7671C22.0889 35.2808 20.93 35.9486 19.9681 36.7706C19.0154 37.5832 18.2825 38.4612 17.7695 39.4046C17.2565 40.3386 17 41.2306 17 42.0806C17 42.6877 17.2107 43.1594 17.6321 43.4956C18.0535 43.8319 18.6398 44 19.391 44ZM28.0069 31.6567C28.9596 31.6567 29.8345 31.3952 30.6315 30.8722C31.4285 30.3491 32.0652 29.6439 32.5415 28.7566C33.0271 27.8599 33.2698 26.8558 33.2698 25.7443C33.2698 24.6608 33.0271 23.6848 32.5415 22.8161C32.0652 21.9475 31.4285 21.2609 30.6315 20.7566C29.8345 20.2522 28.9596 20 28.0069 20C27.0633 20 26.1884 20.2569 25.3823 20.7706C24.5853 21.2843 23.944 21.9802 23.4585 22.8581C22.9821 23.7268 22.7485 24.6982 22.7577 25.7723C22.7577 26.8651 22.9958 27.8599 23.4722 28.7566C23.9486 29.6439 24.5853 30.3491 25.3823 30.8722C26.1793 31.3952 27.0541 31.6567 28.0069 31.6567Z" fill="#202020"/>-->
    <path d="M52 16C53.096 16 54.1241 15.791 55.0844 15.373C56.0502 14.955 56.902 14.3769 57.6399 13.6387C58.3778 12.9059 58.9556 12.0563 59.3733 11.0901C59.7911 10.1238 60 9.09245 60 7.99593C60 6.89941 59.7884 5.87074 59.3652 4.90992C58.9474 3.94368 58.3696 3.09143 57.6317 2.35318C56.8993 1.61493 56.0502 1.03953 55.0844 0.626972C54.1187 0.208991 53.0878 0 51.9919 0C50.9013 0 49.8732 0.208991 48.9074 0.626972C47.9417 1.03953 47.0899 1.61493 46.352 2.35318C45.6195 3.09143 45.0444 3.94368 44.6267 4.90992C44.2089 5.87074 44 6.89941 44 7.99593C44 9.09245 44.2089 10.1238 44.6267 11.0901C45.0444 12.0563 45.6195 12.9059 46.352 13.6387C47.0899 14.3769 47.9417 14.955 48.9074 15.373C49.8732 15.791 50.904 16 52 16ZM52.0163 3.85954C52.2333 3.85954 52.4123 3.93011 52.5534 4.07125C52.6999 4.20695 52.7731 4.38338 52.7731 4.60051V8.27277L52.6999 9.91756L53.3998 9.03003L54.2625 8.11807C54.3927 7.9715 54.5609 7.89822 54.767 7.89822C54.9732 7.89822 55.1414 7.96336 55.2716 8.09364C55.4073 8.21849 55.4751 8.37863 55.4751 8.57405C55.4751 8.76947 55.4045 8.94317 55.2635 9.09517L52.6267 11.774C52.4422 11.9695 52.2387 12.0672 52.0163 12.0672C51.7884 12.0672 51.5822 11.9695 51.3978 11.774L48.7609 9.09517C48.6253 8.9486 48.5575 8.77489 48.5575 8.57405C48.5575 8.37863 48.6226 8.21849 48.7528 8.09364C48.883 7.96336 49.0485 7.89822 49.2492 7.89822C49.4608 7.89822 49.6317 7.9715 49.762 8.11807L50.6409 9.04631L51.3245 9.91756L51.2431 8.27277V4.60051C51.2431 4.38338 51.3164 4.20695 51.4629 4.07125C51.6094 3.93011 51.7938 3.85954 52.0163 3.85954Z" fill="#4DD22C"/>
</svg>
