<svg width="28" height="28" viewBox="0 0 28 28" fill="none" xmlns="http://www.w3.org/2000/svg">
<path d="M17.0206 23.8689H10.9794V16.1545C10.9794 15.8804 11.0611 15.6602 11.2245 15.494C11.3961 15.3278 11.6166 15.2448 11.8862 15.2448H16.126C16.3956 15.2448 16.6121 15.3278 16.7755 15.494C16.9389 15.6602 17.0206 15.8804 17.0206 16.1545V23.8689ZM3.70066 23.333C3.70066 24.1722 3.93756 24.8244 4.41138 25.2896C4.88519 25.7632 5.53873 26 6.37199 26H21.6403C22.4817 26 23.1393 25.7632 23.6131 25.2896C24.0869 24.8244 24.3239 24.1722 24.3239 23.333V14.1854L14.7046 5.98504C14.2471 5.57793 13.7815 5.57793 13.3077 5.98504L3.70066 14.173V23.333ZM0 12.7772C0 13.0513 0.0980306 13.2923 0.294092 13.5C0.498322 13.7077 0.767907 13.8116 1.10284 13.8116C1.2744 13.8116 1.4337 13.7742 1.58074 13.6994C1.73596 13.6163 1.87484 13.5166 1.99737 13.4003L13.565 3.54237C13.7039 3.40944 13.8509 3.34297 14.0061 3.34297C14.1695 3.34297 14.3247 3.40944 14.4718 3.54237L26.0149 13.4003C26.1456 13.5166 26.2845 13.6163 26.4315 13.6994C26.5867 13.7742 26.7501 13.8116 26.9217 13.8116C27.2239 13.8116 27.4772 13.7243 27.6814 13.5499C27.8938 13.3671 28 13.1178 28 12.8021C28 12.4365 27.8652 12.1374 27.5956 11.9048L15.5379 1.61067C15.0722 1.20356 14.5657 1 14.0184 1C13.4792 1 12.9727 1.20356 12.4989 1.61067L0.428884 11.9172C0.142961 12.1499 0 12.4365 0 12.7772ZM21.2359 7.24377L24.3484 9.91077V4.32752C24.3484 4.06996 24.2708 3.86225 24.1155 3.70439C23.9603 3.54653 23.7561 3.4676 23.5028 3.4676H22.0937C21.8404 3.4676 21.6321 3.54653 21.4687 3.70439C21.3135 3.86225 21.2359 4.06996 21.2359 4.32752V7.24377Z" fill="black"/>
</svg>
