<svg width="56" height="56" viewBox="0 0 56 56" fill="none" xmlns="http://www.w3.org/2000/svg">
<rect width="56" height="56" rx="14" fill="#202020"/>
<path d="M31.0206 37.8689H24.9794V30.1545C24.9794 29.8804 25.0611 29.6602 25.2245 29.494C25.3961 29.3278 25.6166 29.2448 25.8862 29.2448H30.126C30.3956 29.2448 30.6121 29.3278 30.7755 29.494C30.9389 29.6602 31.0206 29.8804 31.0206 30.1545V37.8689ZM17.7007 37.333C17.7007 38.1721 17.9376 38.8244 18.4114 39.2896C18.8852 39.7632 19.5387 40 20.372 40H35.6403C36.4817 40 37.1393 39.7632 37.6131 39.2896C38.0869 38.8244 38.3239 38.1721 38.3239 37.333V28.1854L28.7046 19.985C28.2471 19.5779 27.7815 19.5779 27.3077 19.985L17.7007 28.173V37.333ZM14 26.7772C14 27.0513 14.098 27.2923 14.2941 27.5C14.4983 27.7077 14.7679 27.8116 15.1028 27.8116C15.2744 27.8116 15.4337 27.7742 15.5807 27.6994C15.736 27.6163 15.8748 27.5166 15.9974 27.4003L27.565 17.5424C27.7039 17.4094 27.8509 17.343 28.0061 17.343C28.1695 17.343 28.3247 17.4094 28.4718 17.5424L40.0149 27.4003C40.1456 27.5166 40.2845 27.6163 40.4315 27.6994C40.5867 27.7742 40.7501 27.8116 40.9217 27.8116C41.2239 27.8116 41.4772 27.7243 41.6814 27.5499C41.8938 27.3671 42 27.1178 42 26.8021C42 26.4365 41.8652 26.1374 41.5956 25.9048L29.5379 15.6107C29.0722 15.2036 28.5657 15 28.0184 15C27.4792 15 26.9727 15.2036 26.4989 15.6107L14.4289 25.9172C14.143 26.1499 14 26.4365 14 26.7772ZM35.2359 21.2438L38.3484 23.9108V18.3275C38.3484 18.07 38.2708 17.8622 38.1155 17.7044C37.9603 17.5465 37.7561 17.4676 37.5028 17.4676H36.0937C35.8404 17.4676 35.6321 17.5465 35.4687 17.7044C35.3135 17.8622 35.2359 18.07 35.2359 18.3275V21.2438Z" fill="white"/>
</svg>
