<svg width="56" height="56" viewBox="0 0 56 56" fill="none" xmlns="http://www.w3.org/2000/svg">
<rect width="56" height="56" rx="14" fill="#F5F5F5"/>
<g clip-path="url(#clip0_7_9195)">
<path fill-rule="evenodd" clip-rule="evenodd" d="M35.448 40.5755C35.8237 40.8415 36.3078 40.908 36.7395 40.7447C37.1712 40.5802 37.4885 40.2115 37.5842 39.7647C38.598 35 41.0573 22.9402 41.9802 18.606C42.0502 18.2793 41.9335 17.9398 41.6768 17.7217C41.4202 17.5035 41.0643 17.4405 40.747 17.5583C35.8552 19.369 20.79 25.0215 14.6323 27.3C14.2415 27.4447 13.9872 27.8203 14 28.2322C14.014 28.6452 14.2917 29.0033 14.6918 29.1235C17.4533 29.9495 21.0782 31.0987 21.0782 31.0987C21.0782 31.0987 22.7722 36.2145 23.6553 38.8162C23.7662 39.1428 24.0217 39.3995 24.3588 39.4882C24.6948 39.5757 25.0542 39.4835 25.305 39.2467C26.7237 37.9073 28.917 35.8365 28.917 35.8365C28.917 35.8365 33.0843 38.892 35.448 40.5755ZM22.603 30.4523L24.5618 36.9133L24.997 32.8218C24.997 32.8218 32.5652 25.9957 36.8795 22.1048C37.0055 21.9905 37.023 21.7992 36.918 21.665C36.8142 21.5308 36.6228 21.4993 36.4793 21.5903C31.479 24.7835 22.603 30.4523 22.603 30.4523Z" fill="#202020"/>
</g>
<defs>
<clipPath id="clip0_7_9195">
<rect width="28" height="28" fill="white" transform="translate(14 14)"/>
</clipPath>
</defs>
</svg>
