<svg width="56" height="56" viewBox="0 0 56 56" fill="none" xmlns="http://www.w3.org/2000/svg">
<rect width="56" height="56" rx="14" fill="#F5F5F5"/>
<g clip-path="url(#clip0_7_9198)">
<path d="M17.7092 14.0308C15.6639 14.0308 14 15.6929 14 17.7359C14 19.7798 15.6639 21.4426 17.7092 21.4426C19.7528 21.4426 21.4154 19.7797 21.4154 17.7359C21.4155 15.6929 19.7528 14.0308 17.7092 14.0308Z" fill="#202020"/>
<path d="M20.5177 23.0079H14.8966C14.6472 23.0079 14.445 23.2101 14.445 23.4595V41.5175C14.445 41.767 14.6472 41.9691 14.8966 41.9691H20.5177C20.7672 41.9691 20.9693 41.767 20.9693 41.5175V23.4595C20.9693 23.2101 20.7672 23.0079 20.5177 23.0079Z" fill="#202020"/>
<path d="M29.8764 24.6323C30.8887 23.5296 32.5576 22.5591 34.8152 22.5591C41.1464 22.5591 42 27.1356 42 31.6124V41.5176C42 41.767 41.7979 41.9692 41.5484 41.9692H35.9375C35.6881 41.9692 35.4859 41.767 35.4859 41.5176V32.7379C35.4859 30.2796 35.3043 28.3993 33.0186 28.3993C30.9199 28.3993 30.1021 29.5722 30.1021 32.583V41.5175C30.1021 41.767 29.8999 41.9691 29.6505 41.9691H24.0417C23.7922 41.9691 23.5901 41.767 23.5901 41.5175V23.4595C23.5901 23.2101 23.7922 23.0079 24.0417 23.0079H29.4248C29.6743 23.0079 29.8764 23.2101 29.8764 23.4595V24.6323Z" fill="#202020"/>
</g>
<defs>
<clipPath id="clip0_7_9198">
<rect width="28" height="28" fill="white" transform="translate(14 14)"/>
</clipPath>
</defs>
</svg>
