<svg width="28" height="28" viewBox="0 0 28 28" fill="none" xmlns="http://www.w3.org/2000/svg">
<g clip-path="url(#clip0_7_9199)">
<path d="M3.70919 0.0307922C1.66392 0.0307922 0 1.69291 0 3.73591C0 5.77982 1.66392 7.44257 3.70919 7.44257C5.75283 7.44257 7.41539 5.77973 7.41539 3.73591C7.41548 1.69291 5.75283 0.0307922 3.70919 0.0307922Z" fill="#202020"/>
<path d="M6.51768 9.00787H0.896635C0.647165 9.00787 0.445023 9.21011 0.445023 9.45949V27.5175C0.445023 27.767 0.647165 27.9691 0.896635 27.9691H6.51768C6.76715 27.9691 6.96929 27.767 6.96929 27.5175V9.45949C6.96929 9.21011 6.76715 9.00787 6.51768 9.00787Z" fill="#202020"/>
<path d="M15.8764 10.6323C16.8887 9.52957 18.5576 8.55905 20.8152 8.55905C27.1464 8.55905 28 13.1356 28 17.6124V27.5176C28 27.767 27.7979 27.9692 27.5484 27.9692H21.9375C21.6881 27.9692 21.4859 27.767 21.4859 27.5176V18.7379C21.4859 16.2796 21.3043 14.3993 19.0186 14.3993C16.9199 14.3993 16.1021 15.5722 16.1021 18.583V27.5175C16.1021 27.767 15.8999 27.9691 15.6505 27.9691H10.0417C9.79223 27.9691 9.59009 27.767 9.59009 27.5175V9.45948C9.59009 9.2101 9.79223 9.00786 10.0417 9.00786H15.4248C15.6743 9.00786 15.8764 9.2101 15.8764 9.45948V10.6323Z" fill="#202020"/>
</g>
<defs>
<clipPath id="clip0_7_9199">
<rect width="28" height="28" fill="white"/>
</clipPath>
</defs>
</svg>
