<svg width="28" height="28" viewBox="0 0 28 28" fill="none" xmlns="http://www.w3.org/2000/svg">
<g clip-path="url(#clip0_7_9196)">
<path fill-rule="evenodd" clip-rule="evenodd" d="M21.448 26.5755C21.8237 26.8415 22.3078 26.908 22.7395 26.7447C23.1712 26.5802 23.4885 26.2115 23.5842 25.7647C24.598 21 27.0573 8.94016 27.9802 4.60599C28.0502 4.27932 27.9335 3.93982 27.6768 3.72166C27.4202 3.50349 27.0643 3.44049 26.747 3.55832C21.8552 5.36899 6.79 11.0215 0.632332 13.3C0.241499 13.4447 -0.0128346 13.8203 -1.23036e-06 14.2322C0.0139988 14.6452 0.291665 15.0033 0.691832 15.1235C3.45333 15.9495 7.07817 17.0987 7.07817 17.0987C7.07817 17.0987 8.77217 22.2145 9.65533 24.8162C9.76617 25.1428 10.0217 25.3995 10.3588 25.4882C10.6948 25.5757 11.0542 25.4835 11.305 25.2467C12.7237 23.9073 14.917 21.8365 14.917 21.8365C14.917 21.8365 19.0843 24.892 21.448 26.5755ZM8.603 16.4523L10.5618 22.9133L10.997 18.8218C10.997 18.8218 18.5652 11.9957 22.8795 8.10482C23.0055 7.99049 23.023 7.79916 22.918 7.66499C22.8142 7.53082 22.6228 7.49932 22.4793 7.59032C17.479 10.7835 8.603 16.4523 8.603 16.4523Z" fill="#202020"/>
</g>
<defs>
<clipPath id="clip0_7_9196">
<rect width="28" height="28" fill="white"/>
</clipPath>
</defs>
</svg>
