<svg width="56" height="56" viewBox="0 0 56 56" fill="none" xmlns="http://www.w3.org/2000/svg">
<rect width="56" height="56" rx="14" fill="#F5F5F5"/>
<path fill-rule="evenodd" clip-rule="evenodd" d="M27 20.5C27 24.0899 24.0899 27 20.5 27C16.9101 27 14 24.0899 14 20.5C14 16.9101 16.9101 14 20.5 14C24.0899 14 27 16.9101 27 20.5ZM42 20.5C42 24.0899 39.0899 27 35.5 27C31.9101 27 29 24.0899 29 20.5C29 16.9101 31.9101 14 35.5 14C39.0899 14 42 16.9101 42 20.5ZM20.5 42C24.0899 42 27 39.0899 27 35.5C27 31.9101 24.0899 29 20.5 29C16.9101 29 14 31.9101 14 35.5C14 39.0899 16.9101 42 20.5 42Z" fill="black"/>
</svg>

