<svg width="28" height="28" viewBox="0 0 28 28" fill="none" xmlns="http://www.w3.org/2000/svg">
<g clip-path="url(#clip0_1_15)">
<path fill-rule="evenodd" clip-rule="evenodd" d="M13 6.5C13 10.0899 10.0899 13 6.5 13C2.9101 13 0 10.0899 0 6.5C0 2.9101 2.9101 0 6.5 0C10.0899 0 13 2.9101 13 6.5ZM28 6.5C28 10.0899 25.0899 13 21.5 13C17.9101 13 15 10.0899 15 6.5C15 2.9101 17.9101 0 21.5 0C25.0899 0 28 2.9101 28 6.5ZM6.5 28C10.0899 28 13 25.0899 13 21.5C13 17.9101 10.0899 15 6.5 15C2.9101 15 0 17.9101 0 21.5C0 25.0899 2.9101 28 6.5 28Z" fill="black"/>
</g>
<defs>
<clipPath id="clip0_1_15">
<rect width="28" height="28" fill="white"/>
</clipPath>
</defs>
</svg>
